<svg id="Group_22" data-name="Group 22" xmlns="http://www.w3.org/2000/svg" width="367" height="367" viewBox="0 0 367 367">
  <g id="Rectangle_137" data-name="Rectangle 137" fill="#fff" stroke="#1f222b" stroke-width="5">
    <rect width="367" height="367" rx="80" stroke="none"/>
    <rect x="2.5" y="2.5" width="362" height="362" rx="77.5" fill="none"/>
  </g>
  <text id="Testing" transform="translate(103 297)" fill="#1f222b" font-size="50" font-family="Poppins-Medium, Poppins" font-weight="500"><tspan x="0" y="0">Testing</tspan></text>
  <path id="Icon_awesome-puzzle-piece" data-name="Icon awesome-puzzle-piece" d="M153.593,85.351c-12.277,0-17.593,9.342-24.264,9.342-17.734,0-1.592-52.113-1.592-52.113S69.7,66.234,69.7,41.6c0-10.594,10.73-13.676,10.73-25.425C80.427,5.682,72.114,0,62.254,0,52.007,0,42.63,5.586,42.63,16.661c0,12.231,9.377,17.528,9.377,24.173C52.007,61.42,0,49.308,0,49.308v98.534s52.82,12.137,52.82-8.475c0-6.645-11.828-11.859-11.828-24.09,0-11.075,8.649-16.661,18.8-16.661,9.957,0,18.27,5.682,18.27,16.179,0,11.749-10.73,14.831-10.73,25.425,0,17.979,38.343,7.608,53.588,7.608,0,0-10.268-35.513,7.637-35.513,10.634,0,13.727,10.69,25.52,10.69,10.537,0,16.24-8.282,16.24-18.2,0-10.112-5.607-19.454-16.724-19.454Z" transform="translate(114.683 57.304)" fill="none" stroke="#1f222b" stroke-width="5"/>
</svg>
