<svg xmlns="http://www.w3.org/2000/svg" width="367" height="367" viewBox="0 0 367 367">
  <g id="Group_23" data-name="Group 23" transform="translate(0.182)">
    <g id="Rectangle_136" data-name="Rectangle 136" transform="translate(-0.182)" fill="#fff" stroke="#1f222b" stroke-width="5">
      <rect width="367" height="367" rx="80" stroke="none"/>
      <rect x="2.5" y="2.5" width="362" height="362" rx="77.5" fill="none"/>
    </g>
    <text id="UI_Design" data-name="UI Design" transform="translate(77.818 297)" fill="#1f222b" font-size="50" font-family="Poppins-Medium, Poppins" font-weight="500"><tspan x="0" y="0">UI Design</tspan></text>
    <g id="Icon_awesome-paint-brush" data-name="Icon awesome-paint-brush" transform="translate(117.563 71.55)" fill="none">
      <path d="M42.7,79.087c-10.257.66-19.566,4.566-24.848,18.484a3.9,3.9,0,0,1-3.73,2.552c-2.84,0-11.622-7.074-14.125-8.782C0,112.395,9.7,130.9,32.727,130.9c19.395,0,32.725-11.19,32.725-30.728a22.151,22.151,0,0,0-.248-2.334L42.7,79.087ZM117.067,0a15.613,15.613,0,0,0-10.28,4.206c-52.26,46.684-57.7,47.781-57.7,61.523a23.669,23.669,0,0,0,2.232,9.894l16.316,13.6a23.525,23.525,0,0,0,5.724.775c15.879,0,25.083-11.625,53.986-65.567,1.887-3.669,3.554-7.632,3.554-11.758C130.9,5.277,124.254,0,117.067,0Z" stroke="none"/>
      <path d="M 32.72676086425781 125.8995819091797 C 41.14644622802734 125.8995819091797 48.15565490722656 123.5706253051758 52.99661254882812 119.1644821166992 C 55.35798645019531 117.0151901245117 57.18867492675781 114.3767471313477 58.43784332275391 111.3224334716797 C 59.75102996826172 108.1116180419922 60.42805099487305 104.4329833984375 60.45104598999023 100.3852691650391 L 41.08544158935547 84.24764251708984 C 37.04180526733398 84.70855712890625 33.85153198242188 85.77053070068359 31.1542797088623 87.53868865966797 C 27.44223785400391 89.97208404541016 24.62104988098145 93.83406066894531 22.53117561340332 99.34095764160156 C 21.20203018188477 102.8533096313477 17.90227890014648 105.1228332519531 14.12469673156738 105.1228332519531 C 11.93521499633789 105.1228332519531 9.488598823547363 104.0453872680664 5.928707122802734 101.7196044921875 C 6.148146152496338 102.8754806518555 6.406228065490723 104.0029983520508 6.702550888061523 105.0992050170898 C 7.851779937744141 109.3506469726562 9.555300712585449 113.0402679443359 11.76580047607422 116.0656051635742 C 16.53361320495605 122.5909576416016 23.58590507507324 125.8995819091797 32.72676086425781 125.8995819091797 M 73.36186218261719 84.99345397949219 C 76.76113128662109 84.99345397949219 79.43746948242188 84.36122894287109 82.03969573974609 82.94351959228516 C 85.03113555908203 81.31376647949219 88.15898895263672 78.47698211669922 91.60198974609375 74.27099609375 C 95.32485961914062 69.72314453125 99.47354888916016 63.55718612670898 104.6581344604492 54.8663330078125 C 109.4553680419922 46.82479476928711 115.088249206543 36.71891784667969 122.9203262329102 22.1022891998291 C 124.3977890014648 19.2257137298584 125.9014282226562 15.8598461151123 125.9014282226562 12.66812419891357 C 125.9014282226562 10.0730619430542 124.5326766967773 8.329103469848633 123.3844451904297 7.323040962219238 C 121.6994705200195 5.846728324890137 119.3970260620117 4.999999523162842 117.0674896240234 4.999999523162842 C 114.6922988891602 4.999999523162842 112.2281951904297 6.0387282371521 110.1290512084961 7.924874305725098 L 110.1182556152344 7.934520244598389 C 99.10838317871094 17.76968765258789 90.14090728759766 25.61314582824707 82.93540191650391 31.91545677185059 C 69.44103240966797 43.71837615966797 62.00765609741211 50.22002029418945 58.01386260986328 54.98995590209961 C 56.32292556762695 57.00949859619141 55.32419586181641 58.62708282470703 54.77555084228516 60.23481369018555 C 54.28805160522461 61.66337585449219 54.08919525146484 63.25500106811523 54.08919525146484 65.72845458984375 C 54.08919525146484 68.007080078125 54.54349517822266 70.29621124267578 55.44106674194336 72.54734039306641 L 69.92048645019531 84.61275482177734 C 71.17528533935547 84.87124633789062 72.28860473632812 84.99345397949219 73.36186218261719 84.99345397949219 M 32.72676086425781 130.8995819091797 C 9.699154853820801 130.8995819091797 0.001863159122876823 112.3946838378906 -0.0006993408314883709 91.34081268310547 C 2.502238273620605 93.04864501953125 11.28427982330322 100.1228332519531 14.12469673156738 100.1228332519531 C 15.80950927734375 100.1228332519531 17.25400924682617 99.15898132324219 17.85482215881348 97.57131195068359 C 23.13682174682617 83.65302276611328 32.44552993774414 79.74647521972656 42.70273971557617 79.08687591552734 L 65.20365142822266 97.83720397949219 C 65.28546905517578 98.61698150634766 65.45165252685547 99.37628936767578 65.45165252685547 100.1714172363281 C 65.45165252685547 119.7091903686523 52.12136459350586 130.8995819091797 32.72676086425781 130.8995819091797 Z M 73.36186218261719 89.99345397949219 C 71.38047027587891 89.99345397949219 69.48088073730469 89.67900085449219 67.63755035400391 89.21878814697266 L 51.32113265991211 75.62264251708984 C 49.92009353637695 72.57002258300781 49.08919525146484 69.23104095458984 49.08919525146484 65.72845458984375 C 49.08919525146484 51.9865608215332 54.52715301513672 50.8897705078125 106.7872619628906 4.205666065216064 C 109.5586547851562 1.71549928188324 113.1916351318359 -7.120768259483157e-07 117.0674896240234 -7.120768259483157e-07 C 124.2541961669922 -7.120768259483157e-07 130.9014282226562 5.276895046234131 130.9014282226562 12.66812419891357 C 130.9014282226562 16.79451942443848 129.2345123291016 20.75731086730957 127.3477172851562 24.42608261108398 C 98.44498443603516 78.36845397949219 89.24111175537109 89.99345397949219 73.36186218261719 89.99345397949219 Z M 42.70271682739258 79.08687591552734 L 42.70273971557617 79.08687591552734 Z" stroke="none" fill="#1f222b"/>
    </g>
  </g>
</svg>
