<svg xmlns="http://www.w3.org/2000/svg" width="367" height="367" viewBox="0 0 367 367">
  <g id="Group_24" data-name="Group 24" transform="translate(0.364)">
    <g id="Rectangle_135" data-name="Rectangle 135" transform="translate(-0.364)" fill="#fff" stroke="#1f222b" stroke-width="5">
      <rect width="367" height="367" rx="80" stroke="none"/>
      <rect x="2.5" y="2.5" width="362" height="362" rx="77.5" fill="none"/>
    </g>
    <text id="Wireframing" transform="translate(41.636 297)" fill="#1f222b" font-size="50" font-family="Poppins-Medium, Poppins" font-weight="500"><tspan x="0" y="0">Wireframing</tspan></text>
    <path id="Icon_awesome-draw-polygon" data-name="Icon awesome-draw-polygon" d="M122.075,103.979c-.111,0-.213.032-.324.032L109.289,83.246a19.627,19.627,0,0,0,0-19.57L121.751,42.91c.111,0,.213.032.324.032a20.346,20.346,0,1,0-17.523-30.519H37.869a20.284,20.284,0,1,0-27.7,27.7V106.8a20.286,20.286,0,1,0,27.7,27.7h66.68a20.31,20.31,0,1,0,17.526-30.519ZM30.519,106.8V40.119a20.29,20.29,0,0,0,7.35-7.35h66.238L91.881,53.146c-.111,0-.213-.032-.324-.032a20.346,20.346,0,0,0,0,40.692c.111,0,.213-.032.324-.032l12.227,20.378H37.869a20.266,20.266,0,0,0-7.35-7.35ZM86.47,73.46a5.086,5.086,0,1,1,5.086,5.086A5.093,5.093,0,0,1,86.47,73.46ZM127.162,22.6a5.086,5.086,0,1,1-5.086-5.086A5.093,5.093,0,0,1,127.162,22.6ZM20.346,17.509A5.086,5.086,0,1,1,15.259,22.6,5.093,5.093,0,0,1,20.346,17.509ZM15.259,124.325a5.086,5.086,0,1,1,5.086,5.086A5.093,5.093,0,0,1,15.259,124.325Zm106.816,5.086a5.086,5.086,0,1,1,5.086-5.086A5.093,5.093,0,0,1,122.075,129.412Z" transform="translate(112.028 63.54)" fill="none" stroke="#1f222b" stroke-width="5"/>
  </g>
</svg>
